<svg width="21" height="18" viewBox="0 0 21 18" fill="none" xmlns="http://www.w3.org/2000/svg">
<path fill-rule="evenodd" clip-rule="evenodd" d="M0 2.52636C0 2.52636 8.79289 7.51258 10.4996 7.51258C12.2884 7.51258 20.986 2.62161 20.986 2.62161L21 1.74774C21 0.782989 20.217 0 19.2496 0H1.74949C0.782989 0 0 0.782989 0 1.74774V2.52636ZM20.986 5.24323C20.986 5.24323 12.3705 9.91573 10.4996 9.91573C8.79289 9.91573 0.0131081 5.24323 0.0139819 5.24323L0 15.7297C0 16.6944 0.783862 17.4774 1.74949 17.4774H19.2496C20.217 17.4774 21 16.6944 21 15.7297L20.986 5.24323Z" fill="#889CB9"/>
</svg>
